<svg xmlns="http://www.w3.org/2000/svg" viewBox="0 0 1200 630" fill="none">
  <rect width="1200" height="630" fill="#000000"/>
  <!-- Subtle grid -->
  <g opacity="0.03" stroke="#ffffff" stroke-width="0.5">
    <line x1="0" y1="0" x2="0" y2="630"/><line x1="120" y1="0" x2="120" y2="630"/><line x1="240" y1="0" x2="240" y2="630"/>
    <line x1="360" y1="0" x2="360" y2="630"/><line x1="480" y1="0" x2="480" y2="630"/><line x1="600" y1="0" x2="600" y2="630"/>
    <line x1="720" y1="0" x2="720" y2="630"/><line x1="840" y1="0" x2="840" y2="630"/><line x1="960" y1="0" x2="960" y2="630"/>
    <line x1="1080" y1="0" x2="1080" y2="630"/><line x1="1200" y1="0" x2="1200" y2="630"/>
    <line x1="0" y1="0" x2="1200" y2="0"/><line x1="0" y1="126" x2="1200" y2="126"/><line x1="0" y1="252" x2="1200" y2="252"/>
    <line x1="0" y1="378" x2="1200" y2="378"/><line x1="0" y1="504" x2="1200" y2="504"/><line x1="0" y1="630" x2="1200" y2="630"/>
  </g>
  <!-- Signal arcs on right side -->
  <g transform="translate(900, 350)" opacity="0.12">
    <path d="M-120,60 Q-90,-60 0,-120 Q90,-150 150,-90" stroke="#ffffff" stroke-width="8" fill="none" stroke-linecap="round"/>
    <path d="M-75,90 Q-50,-15 30,-60 Q105,-90 150,-30" stroke="#ffffff" stroke-width="6" fill="none" stroke-linecap="round"/>
    <path d="M-30,120 Q0,30 60,0 Q120,-15 150,30" stroke="#ffffff" stroke-width="5" fill="none" stroke-linecap="round"/>
    <circle cx="-135" cy="75" r="20" fill="#ffffff"/>
  </g>
  <!-- Text -->
  <text x="80" y="260" font-family="Inter, system-ui, sans-serif" font-size="64" font-weight="700" fill="#ffffff" letter-spacing="-0.02em">Starlink Health</text>
  <text x="80" y="330" font-family="Inter, system-ui, sans-serif" font-size="64" font-weight="700" fill="rgba(255,255,255,0.35)" letter-spacing="-0.02em">Tracker</text>
  <text x="80" y="390" font-family="Inter, system-ui, sans-serif" font-size="18" fill="rgba(255,255,255,0.3)" letter-spacing="0.1em">REAL-TIME CONSTELLATION MONITORING</text>
  <!-- Bottom bar -->
  <rect x="80" y="520" width="60" height="3" rx="1.5" fill="rgba(255,255,255,0.15)"/>
  <text x="160" y="527" font-family="Inter, system-ui, sans-serif" font-size="14" fill="rgba(255,255,255,0.2)" letter-spacing="0.05em">davidtphung.com</text>
</svg>
